# Wavefront OBJ file automatically generated by Tiled2Unity

# Vertices (Count = 403)
v -2912 -3328 0
v -3120 -3328 0
v -3120 -3120 0
v -2912 -3120 0
v -3328 -3328 0
v -3328 -3120 0
v -2912 -3536 0
v -3120 -3536 0
v -3328 -3536 0
v -2912 -3744 0
v -3120 -3744 0
v -3328 -3744 0
v -2912 -3952 0
v -3120 -3952 0
v -3328 -3952 0
v -2080 -4160 0
v -2288 -4160 0
v -2288 -3952 0
v -2080 -3952 0
v -2496 -4160 0
v -2496 -3952 0
v -2704 -4160 0
v -2704 -3952 0
v -2912 -4160 0
v -3120 -4160 0
v -3328 -4160 0
v -2080 -4368 0
v -2288 -4368 0
v -2496 -4368 0
v -2704 -4368 0
v -2912 -4368 0
v -3120 -4368 0
v -3328 -4368 0
v -2080 -4576 0
v -2288 -4576 0
v -2496 -4576 0
v -2704 -4576 0
v -2912 -4576 0
v -3120 -4576 0
v -3328 -4576 0
v -3536 -4576 0
v -3536 -4368 0
v -3744 -4576 0
v -3744 -4368 0
v -3952 -4576 0
v -3952 -4368 0
v -4160 -4576 0
v -4160 -4368 0
v -4368 -4576 0
v -4368 -4368 0
v -4576 -4576 0
v -4576 -4368 0
v -2080 -4784 0
v -2288 -4784 0
v -2496 -4784 0
v -2704 -4784 0
v -2912 -4784 0
v -3120 -4784 0
v -3328 -4784 0
v -3536 -4784 0
v -3744 -4784 0
v -3952 -4784 0
v -4160 -4784 0
v -4368 -4784 0
v -4576 -4784 0
v -11856 -2912 0
v -12064 -2912 0
v -12064 -2704 0
v -11856 -2704 0
v -12272 -2912 0
v -12272 -2704 0
v -14976 -2912 0
v -15184 -2912 0
v -15184 -2704 0
v -14976 -2704 0
v -15392 -2912 0
v -15392 -2704 0
v -15600 -2912 0
v -15600 -2704 0
v -15808 -2912 0
v -15808 -2704 0
v -16016 -2912 0
v -16016 -2704 0
v -16224 -2912 0
v -16224 -2704 0
v -11232 -3120 0
v -11440 -3120 0
v -11440 -2912 0
v -11232 -2912 0
v -11648 -3120 0
v -11648 -2912 0
v -11856 -3120 0
v -12064 -3120 0
v -12272 -3120 0
v -14976 -3120 0
v -15184 -3120 0
v -15392 -3120 0
v -15600 -3120 0
v -15808 -3120 0
v -16016 -3120 0
v -16224 -3120 0
v -11232 -3328 0
v -11440 -3328 0
v -11648 -3328 0
v -11856 -3328 0
v -12064 -3328 0
v -12272 -3328 0
v -14976 -3328 0
v -15184 -3328 0
v -15392 -3328 0
v -15600 -3328 0
v -15808 -3328 0
v -16016 -3328 0
v -16224 -3328 0
v -10192 -3536 0
v -10400 -3536 0
v -10400 -3328 0
v -10192 -3328 0
v -10608 -3536 0
v -10608 -3328 0
v -10816 -3536 0
v -10816 -3328 0
v -11024 -3536 0
v -11024 -3328 0
v -11232 -3536 0
v -11440 -3536 0
v -11648 -3536 0
v -11856 -3536 0
v -12064 -3536 0
v -12272 -3536 0
v -14976 -3536 0
v -15184 -3536 0
v -15392 -3536 0
v -15600 -3536 0
v -15808 -3536 0
v -16016 -3536 0
v -16224 -3536 0
v -10192 -3744 0
v -10400 -3744 0
v -10608 -3744 0
v -10816 -3744 0
v -11024 -3744 0
v -11232 -3744 0
v -11440 -3744 0
v -11648 -3744 0
v -11856 -3744 0
v -12064 -3744 0
v -12272 -3744 0
v -13936 -3744 0
v -14144 -3744 0
v -14144 -3536 0
v -13936 -3536 0
v -14352 -3744 0
v -14352 -3536 0
v -14560 -3744 0
v -14560 -3536 0
v -14768 -3744 0
v -14768 -3536 0
v -14976 -3744 0
v -15184 -3744 0
v -15392 -3744 0
v -15600 -3744 0
v -15808 -3744 0
v -16016 -3744 0
v -16224 -3744 0
v -7904 -3952 0
v -8112 -3952 0
v -8112 -3744 0
v -7904 -3744 0
v -8320 -3952 0
v -8320 -3744 0
v -8528 -3952 0
v -8528 -3744 0
v -8736 -3952 0
v -8736 -3744 0
v -8944 -3952 0
v -8944 -3744 0
v -9152 -3952 0
v -9152 -3744 0
v -9360 -3952 0
v -9360 -3744 0
v -9568 -3952 0
v -9568 -3744 0
v -13936 -3952 0
v -14144 -3952 0
v -14352 -3952 0
v -14560 -3952 0
v -14768 -3952 0
v -14976 -3952 0
v -15184 -3952 0
v -15392 -3952 0
v -15600 -3952 0
v -15808 -3952 0
v -16016 -3952 0
v -16224 -3952 0
v -4992 -4160 0
v -5200 -4160 0
v -5200 -3952 0
v -4992 -3952 0
v -5408 -4160 0
v -5408 -3952 0
v -5616 -4160 0
v -5616 -3952 0
v -5824 -4160 0
v -5824 -3952 0
v -6032 -4160 0
v -6032 -3952 0
v -6240 -4160 0
v -6240 -3952 0
v -7904 -4160 0
v -8112 -4160 0
v -8320 -4160 0
v -8528 -4160 0
v -8736 -4160 0
v -8944 -4160 0
v -9152 -4160 0
v -9360 -4160 0
v -9568 -4160 0
v -17680 -4160 0
v -17888 -4160 0
v -17888 -3952 0
v -17680 -3952 0
v -18096 -4160 0
v -18096 -3952 0
v -18304 -4160 0
v -18304 -3952 0
v -18512 -4160 0
v -18512 -3952 0
v -18720 -4160 0
v -18720 -3952 0
v -18928 -4160 0
v -18928 -3952 0
v -19136 -4160 0
v -19136 -3952 0
v -19344 -4160 0
v -19344 -3952 0
v -19552 -4160 0
v -19552 -3952 0
v -19760 -4160 0
v -19760 -3952 0
v -19968 -4160 0
v -19968 -3952 0
v -20176 -4160 0
v -20176 -3952 0
v -20384 -4160 0
v -20384 -3952 0
v -20592 -4160 0
v -20592 -3952 0
v -20800 -4160 0
v -20800 -3952 0
v -4992 -4368 0
v -5200 -4368 0
v -5408 -4368 0
v -5616 -4368 0
v -5824 -4368 0
v -6032 -4368 0
v -6240 -4368 0
v -7904 -4368 0
v -8112 -4368 0
v -8320 -4368 0
v -8528 -4368 0
v -8736 -4368 0
v -8944 -4368 0
v -9152 -4368 0
v -9360 -4368 0
v -9568 -4368 0
v -17680 -4368 0
v -17888 -4368 0
v -18096 -4368 0
v -18304 -4368 0
v -18512 -4368 0
v -18720 -4368 0
v -18928 -4368 0
v -19136 -4368 0
v -19344 -4368 0
v -19552 -4368 0
v -19760 -4368 0
v -19968 -4368 0
v -20176 -4368 0
v -20384 -4368 0
v -20592 -4368 0
v -20800 -4368 0
v -4992 -4576 0
v -5200 -4576 0
v -5408 -4576 0
v -5616 -4576 0
v -5824 -4576 0
v -6032 -4576 0
v -6240 -4576 0
v -7072 -4576 0
v -7280 -4576 0
v -7280 -4368 0
v -7072 -4368 0
v -7488 -4576 0
v -7488 -4368 0
v -7696 -4576 0
v -7696 -4368 0
v -7904 -4576 0
v -8112 -4576 0
v -8320 -4576 0
v -8528 -4576 0
v -8736 -4576 0
v -8944 -4576 0
v -9152 -4576 0
v -9360 -4576 0
v -9568 -4576 0
v -10192 -4576 0
v -10400 -4576 0
v -10400 -4368 0
v -10192 -4368 0
v -10608 -4576 0
v -10608 -4368 0
v -10816 -4576 0
v -10816 -4368 0
v -11024 -4576 0
v -11024 -4368 0
v -11232 -4576 0
v -11232 -4368 0
v -11440 -4576 0
v -11648 -4576 0
v -11648 -4368 0
v -11440 -4368 0
v -11856 -4576 0
v -11856 -4368 0
v -12064 -4576 0
v -12064 -4368 0
v -12272 -4576 0
v -12272 -4368 0
v -12480 -4576 0
v -12480 -4368 0
v -12688 -4576 0
v -12688 -4368 0
v -12896 -4576 0
v -12896 -4368 0
v -13104 -4576 0
v -13104 -4368 0
v -13312 -4576 0
v -13312 -4368 0
v -13936 -4576 0
v -14144 -4576 0
v -14144 -4368 0
v -13936 -4368 0
v -14352 -4576 0
v -14352 -4368 0
v -14560 -4576 0
v -14560 -4368 0
v -14768 -4576 0
v -14768 -4368 0
v -14976 -4576 0
v -14976 -4368 0
v -15184 -4576 0
v -15184 -4368 0
v -15392 -4576 0
v -15392 -4368 0
v -15600 -4576 0
v -15600 -4368 0
v -15808 -4576 0
v -15808 -4368 0
v -16016 -4576 0
v -16016 -4368 0
v -16224 -4576 0
v -16224 -4368 0
v -17680 -4576 0
v -17888 -4576 0
v -18096 -4576 0
v -18304 -4576 0
v -18512 -4576 0
v -18720 -4576 0
v -18928 -4576 0
v -19136 -4576 0
v -19344 -4576 0
v -19552 -4576 0
v -19760 -4576 0
v -19968 -4576 0
v -20176 -4576 0
v -20384 -4576 0
v -20592 -4576 0
v -20800 -4576 0
v -7072 -4784 0
v -7280 -4784 0
v -7488 -4784 0
v -7696 -4784 0
v -7904 -4784 0
v -8112 -4784 0
v -8320 -4784 0
v -8528 -4784 0
v -8736 -4784 0
v -8944 -4784 0
v -9152 -4784 0
v -9360 -4784 0
v -9568 -4784 0
v -13936 -4784 0
v -14144 -4784 0
v -14352 -4784 0
v -14560 -4784 0
v -14768 -4784 0
v -14976 -4784 0
v -15184 -4784 0
v -15392 -4784 0
v -15600 -4784 0
v -15808 -4784 0
v -16016 -4784 0
v -16224 -4784 0

# Texture Coorindates (Count = 4)
vt 0.0001220703 0.0001220703
vt 0.9998779 0.0001220703
vt 0.9998779 0.9998779
vt 0.0001220703 0.9998779

# Normal
vn 0 0 -1

# Groups (Count = 23)
g mesh_[00]_[00]
f  1/1/1  2/2/1  3/3/1  4/4/1 
f  16/1/1  17/2/1  18/3/1  19/4/1 
g mesh_[00]_[01]
f  2/1/1  5/2/1  6/3/1  3/4/1 
f  49/1/1  51/2/1  52/3/1  50/4/1 
g mesh_[00]_[06]
f  7/1/1  8/2/1  2/3/1  1/4/1 
f  10/1/1  11/2/1  8/3/1  7/4/1 
f  13/1/1  14/2/1  11/3/1  10/4/1 
f  27/1/1  28/2/1  17/3/1  16/4/1 
f  34/1/1  35/2/1  28/3/1  27/4/1 
g mesh_[00]_[07]
f  8/1/1  9/2/1  5/3/1  2/4/1 
f  11/1/1  12/2/1  9/3/1  8/4/1 
f  14/1/1  15/2/1  12/3/1  11/4/1 
f  25/1/1  26/2/1  15/3/1  14/4/1 
f  32/1/1  33/2/1  26/3/1  25/4/1 
g mesh_[00]_[02]
f  17/1/1  20/2/1  21/3/1  18/4/1 
f  20/1/1  22/2/1  23/3/1  21/4/1 
f  22/1/1  24/2/1  13/3/1  23/4/1 
f  40/1/1  41/2/1  42/3/1  33/4/1 
f  41/1/1  43/2/1  44/3/1  42/4/1 
f  43/1/1  45/2/1  46/3/1  44/4/1 
f  45/1/1  47/2/1  48/3/1  46/4/1 
f  47/1/1  49/2/1  50/3/1  48/4/1 
g mesh_[00]_[13]
f  24/1/1  25/2/1  14/3/1  13/4/1 
g mesh_[00]_[12]
f  28/1/1  29/2/1  20/3/1  17/4/1 
f  29/1/1  30/2/1  22/3/1  20/4/1 
f  30/1/1  31/2/1  24/3/1  22/4/1 
f  31/1/1  32/2/1  25/3/1  24/4/1 
f  35/1/1  36/2/1  29/3/1  28/4/1 
f  36/1/1  37/2/1  30/3/1  29/4/1 
f  37/1/1  38/2/1  31/3/1  30/4/1 
f  38/1/1  39/2/1  32/3/1  31/4/1 
g mesh_[00]_[14]
f  39/1/1  40/2/1  33/3/1  32/4/1 
g mesh_[00]_[17]
f  53/1/1  54/2/1  35/3/1  34/4/1 
g mesh_[00]_[19]
f  54/1/1  55/2/1  36/3/1  35/4/1 
f  55/1/1  56/2/1  37/3/1  36/4/1 
f  56/1/1  57/2/1  38/3/1  37/4/1 
f  57/1/1  58/2/1  39/3/1  38/4/1 
f  58/1/1  59/2/1  40/3/1  39/4/1 
f  59/1/1  60/2/1  41/3/1  40/4/1 
f  60/1/1  61/2/1  43/3/1  41/4/1 
f  61/1/1  62/2/1  45/3/1  43/4/1 
f  62/1/1  63/2/1  47/3/1  45/4/1 
f  63/1/1  64/2/1  49/3/1  47/4/1 
g mesh_[00]_[18]
f  64/1/1  65/2/1  51/3/1  49/4/1 
g mesh_[01]_[00]
f  66/1/1  67/2/1  68/3/1  69/4/1 
f  72/1/1  73/2/1  74/3/1  75/4/1 
f  86/1/1  87/2/1  88/3/1  89/4/1 
f  115/1/1  116/2/1  117/3/1  118/4/1 
f  149/1/1  150/2/1  151/3/1  152/4/1 
f  166/1/1  167/2/1  168/3/1  169/4/1 
f  196/1/1  197/2/1  198/3/1  199/4/1 
f  219/1/1  220/2/1  221/3/1  222/4/1 
f  290/1/1  291/2/1  292/3/1  293/4/1 
f  339/1/1  340/2/1  341/3/1  342/4/1 
g mesh_[01]_[01]
f  67/1/1  70/2/1  71/3/1  68/4/1 
f  82/1/1  84/2/1  85/3/1  83/4/1 
f  180/1/1  182/2/1  183/3/1  181/4/1 
f  206/1/1  208/2/1  209/3/1  207/4/1 
f  247/1/1  249/2/1  250/3/1  248/4/1 
f  359/1/1  361/2/1  362/3/1  360/4/1 
g mesh_[01]_[02]
f  73/1/1  76/2/1  77/3/1  74/4/1 
f  76/1/1  78/2/1  79/3/1  77/4/1 
f  78/1/1  80/2/1  81/3/1  79/4/1 
f  80/1/1  82/2/1  83/3/1  81/4/1 
f  87/1/1  90/2/1  91/3/1  88/4/1 
f  90/1/1  92/2/1  66/3/1  91/4/1 
f  116/1/1  119/2/1  120/3/1  117/4/1 
f  119/1/1  121/2/1  122/3/1  120/4/1 
f  121/1/1  123/2/1  124/3/1  122/4/1 
f  123/1/1  125/2/1  102/3/1  124/4/1 
f  150/1/1  153/2/1  154/3/1  151/4/1 
f  153/1/1  155/2/1  156/3/1  154/4/1 
f  155/1/1  157/2/1  158/3/1  156/4/1 
f  157/1/1  159/2/1  131/3/1  158/4/1 
f  167/1/1  170/2/1  171/3/1  168/4/1 
f  170/1/1  172/2/1  173/3/1  171/4/1 
f  172/1/1  174/2/1  175/3/1  173/4/1 
f  174/1/1  176/2/1  177/3/1  175/4/1 
f  176/1/1  178/2/1  179/3/1  177/4/1 
f  178/1/1  180/2/1  181/3/1  179/4/1 
f  197/1/1  200/2/1  201/3/1  198/4/1 
f  200/1/1  202/2/1  203/3/1  201/4/1 
f  202/1/1  204/2/1  205/3/1  203/4/1 
f  204/1/1  206/2/1  207/3/1  205/4/1 
f  220/1/1  223/2/1  224/3/1  221/4/1 
f  223/1/1  225/2/1  226/3/1  224/4/1 
f  225/1/1  227/2/1  228/3/1  226/4/1 
f  227/1/1  229/2/1  230/3/1  228/4/1 
f  229/1/1  231/2/1  232/3/1  230/4/1 
f  231/1/1  233/2/1  234/3/1  232/4/1 
f  233/1/1  235/2/1  236/3/1  234/4/1 
f  235/1/1  237/2/1  238/3/1  236/4/1 
f  237/1/1  239/2/1  240/3/1  238/4/1 
f  239/1/1  241/2/1  242/3/1  240/4/1 
f  241/1/1  243/2/1  244/3/1  242/4/1 
f  243/1/1  245/2/1  246/3/1  244/4/1 
f  245/1/1  247/2/1  248/3/1  246/4/1 
f  291/1/1  294/2/1  295/3/1  292/4/1 
f  294/1/1  296/2/1  297/3/1  295/4/1 
f  296/1/1  298/2/1  258/3/1  297/4/1 
f  308/1/1  311/2/1  312/3/1  309/4/1 
f  311/1/1  313/2/1  314/3/1  312/4/1 
f  313/1/1  315/2/1  316/3/1  314/4/1 
f  320/1/1  323/2/1  324/3/1  321/4/1 
f  323/1/1  325/2/1  326/3/1  324/4/1 
f  325/1/1  327/2/1  328/3/1  326/4/1 
f  327/1/1  329/2/1  330/3/1  328/4/1 
f  329/1/1  331/2/1  332/3/1  330/4/1 
f  331/1/1  333/2/1  334/3/1  332/4/1 
f  333/1/1  335/2/1  336/3/1  334/4/1 
f  340/1/1  343/2/1  344/3/1  341/4/1 
f  343/1/1  345/2/1  346/3/1  344/4/1 
f  345/1/1  347/2/1  348/3/1  346/4/1 
f  347/1/1  349/2/1  350/3/1  348/4/1 
f  349/1/1  351/2/1  352/3/1  350/4/1 
f  351/1/1  353/2/1  354/3/1  352/4/1 
f  353/1/1  355/2/1  356/3/1  354/4/1 
f  355/1/1  357/2/1  358/3/1  356/4/1 
f  357/1/1  359/2/1  360/3/1  358/4/1 
g mesh_[01]_[13]
f  92/1/1  93/2/1  67/3/1  66/4/1 
f  125/1/1  126/2/1  103/3/1  102/4/1 
f  159/1/1  160/2/1  132/3/1  131/4/1 
f  298/1/1  299/2/1  259/3/1  258/4/1 
g mesh_[01]_[07]
f  93/1/1  94/2/1  70/3/1  67/4/1 
f  100/1/1  101/2/1  84/3/1  82/4/1 
f  106/1/1  107/2/1  94/3/1  93/4/1 
f  113/1/1  114/2/1  101/3/1  100/4/1 
f  129/1/1  130/2/1  107/3/1  106/4/1 
f  136/1/1  137/2/1  114/3/1  113/4/1 
f  164/1/1  165/2/1  137/3/1  136/4/1 
f  217/1/1  218/2/1  182/3/1  180/4/1 
f  256/1/1  257/2/1  208/3/1  206/4/1 
f  265/1/1  266/2/1  218/3/1  217/4/1 
f  281/1/1  282/2/1  249/3/1  247/4/1 
f  305/1/1  306/2/1  266/3/1  265/4/1 
g mesh_[01]_[06]
f  95/1/1  96/2/1  73/3/1  72/4/1 
f  102/1/1  103/2/1  87/3/1  86/4/1 
f  108/1/1  109/2/1  96/3/1  95/4/1 
f  131/1/1  132/2/1  109/3/1  108/4/1 
f  210/1/1  211/2/1  167/3/1  166/4/1 
f  251/1/1  252/2/1  197/3/1  196/4/1 
f  258/1/1  259/2/1  211/3/1  210/4/1 
f  267/1/1  268/2/1  220/3/1  219/4/1 
g mesh_[01]_[12]
f  96/1/1  97/2/1  76/3/1  73/4/1 
f  97/1/1  98/2/1  78/3/1  76/4/1 
f  98/1/1  99/2/1  80/3/1  78/4/1 
f  99/1/1  100/2/1  82/3/1  80/4/1 
f  103/1/1  104/2/1  90/3/1  87/4/1 
f  104/1/1  105/2/1  92/3/1  90/4/1 
f  105/1/1  106/2/1  93/3/1  92/4/1 
f  109/1/1  110/2/1  97/3/1  96/4/1 
f  110/1/1  111/2/1  98/3/1  97/4/1 
f  111/1/1  112/2/1  99/3/1  98/4/1 
f  112/1/1  113/2/1  100/3/1  99/4/1 
f  126/1/1  127/2/1  104/3/1  103/4/1 
f  127/1/1  128/2/1  105/3/1  104/4/1 
f  128/1/1  129/2/1  106/3/1  105/4/1 
f  132/1/1  133/2/1  110/3/1  109/4/1 
f  133/1/1  134/2/1  111/3/1  110/4/1 
f  134/1/1  135/2/1  112/3/1  111/4/1 
f  135/1/1  136/2/1  113/3/1  112/4/1 
f  160/1/1  161/2/1  133/3/1  132/4/1 
f  161/1/1  162/2/1  134/3/1  133/4/1 
f  162/1/1  163/2/1  135/3/1  134/4/1 
f  163/1/1  164/2/1  136/3/1  135/4/1 
f  211/1/1  212/2/1  170/3/1  167/4/1 
f  212/1/1  213/2/1  172/3/1  170/4/1 
f  213/1/1  214/2/1  174/3/1  172/4/1 
f  214/1/1  215/2/1  176/3/1  174/4/1 
f  215/1/1  216/2/1  178/3/1  176/4/1 
f  216/1/1  217/2/1  180/3/1  178/4/1 
f  252/1/1  253/2/1  200/3/1  197/4/1 
f  253/1/1  254/2/1  202/3/1  200/4/1 
f  254/1/1  255/2/1  204/3/1  202/4/1 
f  255/1/1  256/2/1  206/3/1  204/4/1 
f  259/1/1  260/2/1  212/3/1  211/4/1 
f  260/1/1  261/2/1  213/3/1  212/4/1 
f  261/1/1  262/2/1  214/3/1  213/4/1 
f  262/1/1  263/2/1  215/3/1  214/4/1 
f  263/1/1  264/2/1  216/3/1  215/4/1 
f  264/1/1  265/2/1  217/3/1  216/4/1 
f  268/1/1  269/2/1  223/3/1  220/4/1 
f  269/1/1  270/2/1  225/3/1  223/4/1 
f  270/1/1  271/2/1  227/3/1  225/4/1 
f  271/1/1  272/2/1  229/3/1  227/4/1 
f  272/1/1  273/2/1  231/3/1  229/4/1 
f  273/1/1  274/2/1  233/3/1  231/4/1 
f  274/1/1  275/2/1  235/3/1  233/4/1 
f  275/1/1  276/2/1  237/3/1  235/4/1 
f  276/1/1  277/2/1  239/3/1  237/4/1 
f  277/1/1  278/2/1  241/3/1  239/4/1 
f  278/1/1  279/2/1  243/3/1  241/4/1 
f  279/1/1  280/2/1  245/3/1  243/4/1 
f  280/1/1  281/2/1  247/3/1  245/4/1 
f  299/1/1  300/2/1  260/3/1  259/4/1 
f  300/1/1  301/2/1  261/3/1  260/4/1 
f  301/1/1  302/2/1  262/3/1  261/4/1 
f  302/1/1  303/2/1  263/3/1  262/4/1 
f  303/1/1  304/2/1  264/3/1  263/4/1 
f  304/1/1  305/2/1  265/3/1  264/4/1 
g mesh_[01]_[17]
f  138/1/1  139/2/1  116/3/1  115/4/1 
f  184/1/1  185/2/1  150/3/1  149/4/1 
f  283/1/1  284/2/1  252/3/1  251/4/1 
f  363/1/1  364/2/1  268/3/1  267/4/1 
f  379/1/1  380/2/1  291/3/1  290/4/1 
f  392/1/1  393/2/1  340/3/1  339/4/1 
g mesh_[01]_[19]
f  139/1/1  140/2/1  119/3/1  116/4/1 
f  140/1/1  141/2/1  121/3/1  119/4/1 
f  141/1/1  142/2/1  123/3/1  121/4/1 
f  142/1/1  143/2/1  125/3/1  123/4/1 
f  143/1/1  144/2/1  126/3/1  125/4/1 
f  144/1/1  145/2/1  127/3/1  126/4/1 
f  145/1/1  146/2/1  128/3/1  127/4/1 
f  146/1/1  147/2/1  129/3/1  128/4/1 
f  185/1/1  186/2/1  153/3/1  150/4/1 
f  186/1/1  187/2/1  155/3/1  153/4/1 
f  187/1/1  188/2/1  157/3/1  155/4/1 
f  188/1/1  189/2/1  159/3/1  157/4/1 
f  189/1/1  190/2/1  160/3/1  159/4/1 
f  190/1/1  191/2/1  161/3/1  160/4/1 
f  191/1/1  192/2/1  162/3/1  161/4/1 
f  192/1/1  193/2/1  163/3/1  162/4/1 
f  193/1/1  194/2/1  164/3/1  163/4/1 
f  284/1/1  285/2/1  253/3/1  252/4/1 
f  285/1/1  286/2/1  254/3/1  253/4/1 
f  286/1/1  287/2/1  255/3/1  254/4/1 
f  287/1/1  288/2/1  256/3/1  255/4/1 
f  364/1/1  365/2/1  269/3/1  268/4/1 
f  365/1/1  366/2/1  270/3/1  269/4/1 
f  366/1/1  367/2/1  271/3/1  270/4/1 
f  367/1/1  368/2/1  272/3/1  271/4/1 
f  368/1/1  369/2/1  273/3/1  272/4/1 
f  369/1/1  370/2/1  274/3/1  273/4/1 
f  370/1/1  371/2/1  275/3/1  274/4/1 
f  371/1/1  372/2/1  276/3/1  275/4/1 
f  372/1/1  373/2/1  277/3/1  276/4/1 
f  373/1/1  374/2/1  278/3/1  277/4/1 
f  374/1/1  375/2/1  279/3/1  278/4/1 
f  375/1/1  376/2/1  280/3/1  279/4/1 
f  376/1/1  377/2/1  281/3/1  280/4/1 
f  380/1/1  381/2/1  294/3/1  291/4/1 
f  381/1/1  382/2/1  296/3/1  294/4/1 
f  382/1/1  383/2/1  298/3/1  296/4/1 
f  383/1/1  384/2/1  299/3/1  298/4/1 
f  384/1/1  385/2/1  300/3/1  299/4/1 
f  385/1/1  386/2/1  301/3/1  300/4/1 
f  386/1/1  387/2/1  302/3/1  301/4/1 
f  387/1/1  388/2/1  303/3/1  302/4/1 
f  388/1/1  389/2/1  304/3/1  303/4/1 
f  389/1/1  390/2/1  305/3/1  304/4/1 
f  393/1/1  394/2/1  343/3/1  340/4/1 
f  394/1/1  395/2/1  345/3/1  343/4/1 
f  395/1/1  396/2/1  347/3/1  345/4/1 
f  396/1/1  397/2/1  349/3/1  347/4/1 
f  397/1/1  398/2/1  351/3/1  349/4/1 
f  398/1/1  399/2/1  353/3/1  351/4/1 
f  399/1/1  400/2/1  355/3/1  353/4/1 
f  400/1/1  401/2/1  357/3/1  355/4/1 
f  401/1/1  402/2/1  359/3/1  357/4/1 
g mesh_[01]_[18]
f  147/1/1  148/2/1  130/3/1  129/4/1 
f  194/1/1  195/2/1  165/3/1  164/4/1 
f  288/1/1  289/2/1  257/3/1  256/4/1 
f  377/1/1  378/2/1  282/3/1  281/4/1 
f  390/1/1  391/2/1  306/3/1  305/4/1 
f  402/1/1  403/2/1  361/3/1  359/4/1 
g mesh_[01]_[04]
f  307/1/1  308/2/1  309/3/1  310/4/1 
f  319/1/1  320/2/1  321/3/1  322/4/1 
g mesh_[01]_[05]
f  315/1/1  317/2/1  318/3/1  316/4/1 
f  335/1/1  337/2/1  338/3/1  336/4/1 
